<?xml version="1.0" standalone="no"?>
<!DOCTYPE svg PUBLIC "-//W3C//DTD SVG 20010904//EN"
 "http://www.w3.org/TR/2001/REC-SVG-20010904/DTD/svg10.dtd">
<svg version="1.0" xmlns="http://www.w3.org/2000/svg"
 width="96.000000pt" height="96.000000pt" viewBox="0 0 96.000000 96.000000"
 preserveAspectRatio="xMidYMid meet">
<metadata>
Created by potrace 1.11, written by Peter Selinger 2001-2013
</metadata>
<g transform="translate(0.000000,96.000000) scale(0.100000,-0.100000)"
fill="#000000" stroke="none">
<path d="M433 566 l-343 -111 0 -31 c0 -77 50 -193 113 -261 63 -68 118 -96
183 -94 66 3 107 3 182 0 42 -2 68 3 98 19 39 20 144 124 144 143 0 5 -118 9
-285 9 l-285 0 0 60 0 60 60 0 60 0 0 -33 c0 -19 3 -37 7 -40 12 -13 33 15 33
44 0 36 34 41 44 7 l6 -23 19 23 c29 34 49 28 53 -15 2 -26 8 -38 18 -38 10 0
16 12 18 38 2 28 8 37 21 37 10 0 21 -9 24 -20 7 -26 27 -26 34 0 3 11 14 20
24 20 13 0 19 -9 21 -37 2 -26 8 -38 18 -38 10 0 16 12 18 38 2 28 8 37 21 37
10 0 21 -9 24 -20 7 -26 27 -26 34 0 4 14 14 20 34 20 37 0 41 9 42 93 0 82
-27 159 -71 199 l-27 25 -342 -111z"/>
</g>
</svg>
